PathFileType	4	(X/Y/Z)	12_2_112_p1_0-270.trc
DataRate	CameraRate	NumFrames	NumMarkers	Units	OrigDataRate	OrigDataStartFrame	OrigNumFrames
59.0	59.0	7	27	m	59.0	0	271
Frame#	Time	RHip			RKnee			RAnkle			RBigToe			RSmallToe			RHeel			LHip			LKnee			LAnkle			LBigToe			LSmallToe			LHeel			Neck			Head			Nose			RShoulder			RElbow			RWrist			RThumb			RIndex			RPinky			LShoulder			LElbow			LWrist			LThumb			LIndex			LPinky			
		X1	Y1	Z1	X2	Y2	Z2	X3	Y3	Z3	X4	Y4	Z4	X5	Y5	Z5	X6	Y6	Z6	X7	Y7	Z7	X8	Y8	Z8	X9	Y9	Z9	X10	Y10	Z10	X11	Y11	Z11	X12	Y12	Z12	X13	Y13	Z13	X14	Y14	Z14	X15	Y15	Z15	X16	Y16	Z16	X17	Y17	Z17	X18	Y18	Z18	X19	Y19	Z19	X20	Y20	Z20	X21	Y21	Z21	X22	Y22	Z22	X23	Y23	Z23	X24	Y24	Z24	X25	Y25	Z25	X26	Y26	Z26	X27	Y27	Z27	
0	0.0	0.4440479638750529	0.5009807081991078	1.0404240116714079	0.4802597542487305	0.5571297777359376	1.517352085898007	0.4955556316537082	0.6121240209623491	1.9262553080325837	0.4722469409590919	0.3793344293985962	1.9177803656955514	0.533898047657646	0.4258620256232725	1.9298543266997394	0.4730066548972709	0.6645074668659724	2.0113950744366296	0.21546686128223166	0.545705465930498	1.098876359303458	0.27374402786805163	0.5524563205759992	1.550943061471789	0.32795858536288114	0.5888066266866661	1.951323878380547	0.34087768526144635	0.3955386565845824	1.9592346998635286	0.2722091474857214	0.4331330024782236	1.9493481612760082	0.345324184118778	0.6459009628864072	2.0142805634730894	0.25080141878469564	0.5672195681161033	0.42475857835546155	0.23568934702422592	0.5369587361205859	0.1720101099952276	0.2515070843510625	0.45718160230891847	0.28841389390181565	0.4460189561963873	0.5539881067588851	0.530463490426936	0.49885336996467605	0.5053337435852909	0.8018130588403702	0.39516393138151285	0.3468589837158844	0.9919670747139906	0.30734181766826074	0.33595454371470035	1.0531409740069595	0.30423866850241593	0.3403180629222254	1.0848410375462116	0.3095806575068744	0.35275376126249863	1.0965640842567008	0.10656816909314198	0.55403402491865	0.5527059451457431	0.09543814682910923	0.49555151950914017	0.8308255110838316	0.2727816552367272	0.3843885183968284	0.9952113454301077	0.3734231728121695	0.34652726953536284	1.025191250585034	0.3810276828090685	0.3410378619966094	1.083292413720496	0.33786147169716824	0.35478086222026595	1.0901762915153883
1	0.01694915254237288	0.444562906621566	0.49957140691312607	1.0439211556352737	0.4805400610028477	0.5567860125036389	1.5125584913898162	0.5002138477508695	0.6256079072245915	1.9339125723352886	0.47621677382502636	0.39065974061583664	1.9249585220997218	0.5339164715677159	0.42598621524873226	1.9298797307916893	0.4713687089828871	0.6623179322866685	2.00501341727905	0.22033695193295466	0.5309681082011017	1.1009630691810837	0.27243523156951316	0.5508693920053326	1.5460445633122526	0.3317741234949011	0.6018407869275186	1.9592614010644496	0.34091674359623997	0.3955472592008428	1.9592154669212236	0.27512874824905925	0.4447515826524822	1.9568448285330629	0.3448605842003536	0.6486067602623021	2.0111684044328135	0.2508119375040409	0.5672178178582077	0.4247186840715687	0.2360592219476846	0.5366104139361262	0.1751455465270877	0.2514853422580972	0.4570346647775845	0.28840393429084266	0.4459801405609403	0.5541257529474138	0.5304680003155301	0.5024552999633767	0.5165940133230287	0.8043468821521668	0.3948788315340863	0.3468692088077345	0.9921747556409058	0.307805765576111	0.33581250309396793	1.0536219474516377	0.3044173350688715	0.3405760499942533	1.0846734671357474	0.30863959294180093	0.35369500597159365	1.0932511467847426	0.10671137244349395	0.5539508292530813	0.5525300462946636	0.09532927638740056	0.4946073972945299	0.8302078218383852	0.2726651719415042	0.38413895384170066	0.9949618371991243	0.36861944044343264	0.35879096291704793	1.0305086964335344	0.38113253450393925	0.3415600480297872	1.0831548631822099	0.3380301555997989	0.35513649572489436	1.0904360892723384
2	0.03389830508474576	0.4405182555700959	0.49855020294223634	1.0441698458612578	0.48056099455826506	0.5567407366962389	1.512479066195437	0.49648072625581224	0.6415113004290387	1.944788188588992	0.472295739877934	0.3793289707921937	1.917673702542168	0.5338841101582221	0.42583617890400577	1.929778234010403	0.47331125041962074	0.6653483829776505	2.0118360364961263	0.22040618148677107	0.5308509853929515	1.1010435282783457	0.26905687408634726	0.5493667670831774	1.5502575071765776	0.3316991684855948	0.6020267959060925	1.9591581301780272	0.3363814980068658	0.3930905738969737	1.9583032266069687	0.26716359078304064	0.42971039190069443	1.9476435026009367	0.34472722079108487	0.648262893925696	2.010873130249837	0.250807558781232	0.5671822967575885	0.42472851556337415	0.23607483999989873	0.5364948145840128	0.1751452924629162	0.2515018995406737	0.4570027718954427	0.2883767536034265	0.44597039488699314	0.5540785167603341	0.5304537888256592	0.502433908582623	0.5163911867017342	0.8042338956696351	0.3948443467809554	0.3466862512349579	0.9921291305780757	0.30777703428680925	0.33551325106646723	1.0535418779826915	0.30442521650079285	0.3400945877804805	1.0846459136297486	0.30873016036778156	0.3534580389179801	1.0931075944126198	0.10674785825694928	0.5540599766690459	0.5524701621200233	0.09533280775799745	0.49459989733618437	0.8301839831450428	0.2726969968955404	0.38403620224594176	0.9950106950151243	0.37300851903910326	0.34654067227689234	1.0288270175550625	0.3805733378388156	0.3426581361365842	1.0795031938746806	0.33851269581300775	0.3541213996100044	1.093755723278453
3	0.05084745762711865	0.4405524826708377	0.498543295250087	1.0441087744718875	0.48059225420511675	0.556811543017444	1.5124821681795286	0.4964692115218464	0.6415067333487664	1.9448137716401046	0.4763647521305452	0.3907926800552083	1.925010498797658	0.5339225832070117	0.42593037309106746	1.9298810787169005	0.4733419923123051	0.6651361010183482	2.011683757184835	0.21524492701697112	0.5454489204656721	1.1029784868798684	0.2724178079132109	0.5508268580239413	1.5460501839534941	0.33168377908012414	0.6018863685994249	1.95916030758	0.3364339577126503	0.3925697144657246	1.9580230201373634	0.2671624175307593	0.42929837182586666	1.9475264472528244	0.3448051326360667	0.6482250756630897	2.010984052017959	0.2508098411542557	0.5671130075175559	0.4247316702365086	0.23604567738679297	0.5366125155114947	0.1751769355337041	0.2514698213892641	0.4570385249808612	0.28838915511751817	0.44599033364626034	0.5540770138474422	0.5304443143626065	0.50244112050472	0.5164542864557328	0.8042406558352606	0.39484974126204087	0.346696871241387	0.992099819969609	0.3076760500460374	0.3358824782921797	1.0536014554583857	0.3043868093240867	0.34036607010655207	1.0847098980807748	0.30873448262536823	0.35340911001307196	1.0929243873339605	0.10667693691745621	0.5541617168111561	0.552566727970361	0.09519264740833475	0.4949838616003216	0.830266812307622	0.2684886268559595	0.3968509167432378	1.0001002023817194	0.36869090007114674	0.35907972352799616	1.0306459796653962	0.38121265239589663	0.34157986757318254	1.0832456410384652	0.33790520351515074	0.35480799337085456	1.0903200089156078
4	0.06779661016949153	0.44059398080833834	0.49846283588520535	1.0441967195637718	0.48056298437637207	0.556792200464602	1.5124267674632081	0.49645334533120083	0.6415793762405598	1.9448281997436843	0.47784653246592207	0.3921021334561992	1.9302920692831167	0.5339402857904573	0.42600810706768116	1.9298950013792437	0.4731426776020332	0.6650479346350311	2.0116301091933635	0.21610815412330076	0.5445911658542607	1.1024238635703045	0.27245665290377435	0.5509028070111811	1.5460163064299783	0.3279653685754387	0.589136514539902	1.9512081422776986	0.3363035473698459	0.39323040530193254	1.9583961815208246	0.26708115540637434	0.42976570592678287	1.9475776984175732	0.3448062886885164	0.648413906246598	2.0109820043656232	0.2508026953124931	0.5671558824433957	0.42473918554448514	0.23605323567729283	0.5366162042812723	0.17517946689370875	0.25146672691095234	0.45699512225275835	0.2884326755937643	0.4459978352889971	0.5540948927145435	0.5304785827408038	0.5025407895995639	0.5164655457916203	0.8043528571300865	0.39481481258920764	0.3467648602113184	0.9922204405153795	0.3074425535225449	0.3359016607720879	1.053588679015415	0.29557477562154266	0.3147229834835016	1.077153951000955	0.3086310252973819	0.35373378680211714	1.093363678043833	0.1066622159965409	0.5540463699702213	0.552592273056958	0.09107568351527517	0.4924653526161032	0.830095819815718	0.2684882947691413	0.39695012292162957	1.0001268080669403	0.3695918031522559	0.3598430612768964	1.0344256249689487	0.3809893428253805	0.34146068824971004	1.0834294748201034	0.33791277208977805	0.35444671258634275	1.0901858949483827
5	0.0847457627118644	0.4405446285742162	0.49825146246272184	1.0442086309205267	0.4805231603789647	0.5568241853432954	1.5124547354399471	0.49647377186432706	0.6414800372372385	1.9448222483086735	0.4722993549881342	0.379367503770581	1.917795441466421	0.5339102510337675	0.42597642204387554	1.9299171647444506	0.47320021626150083	0.6650065715504885	2.011638429398277	0.21604941118245238	0.5447085795248959	1.1024508263586186	0.273586938185771	0.5523333305043443	1.5510435049846822	0.3279974898794666	0.5890569757885182	1.9512455273590827	0.3365110952287123	0.3931638014312084	1.958426814267028	0.270140845404581	0.4413319648785577	1.955287325861473	0.344830307717943	0.6482452938868261	2.010977955035627	0.2508189924543546	0.5671633004993437	0.4247927402126476	0.236060124955742	0.5366222546368512	0.17515992487238818	0.2514459416570735	0.45701009654543245	0.28844144696453133	0.44600774539361704	0.5540803313498485	0.530482791777538	0.5056179979843947	0.5028195468738825	0.800075348354528	0.3947628030805979	0.3467156809335803	0.9922108238024522	0.3076048270776266	0.336053072572689	1.0503890181584137	0.30405992850015495	0.3405972136723888	1.0849873633464922	0.3055225127596184	0.36496207692288773	1.1021788073916472	0.10667436073112484	0.5541739941051331	0.5525497953821015	0.09111039955379287	0.4924061408334675	0.8300432706011968	0.2684208408890571	0.39699099556373246	1.0000783797463473	0.36851369274948104	0.35900978840119857	1.030598946348025	0.3774216637405332	0.3542725527230798	1.089010086611162	0.3379490385282751	0.35425723297511247	1.090177971211247
6	0.1016949152542373	0.4403606225142968	0.4985604372601301	1.048034171710011	0.480546027386049	0.5568344388876256	1.5125169613258553	0.49291394312784875	0.6377730652797002	1.947795645046668	0.47781291852910174	0.3921335941908973	1.9303333672317573	0.5339076389712036	0.4261416227089084	1.929986804557545	0.47317400969941137	0.665019195677156	2.011699101246471	0.21583672512214488	0.544349396878636	1.1066366272902604	0.2735480082165204	0.552178790337697	1.55104249640468	0.3316135763185832	0.602033321071426	1.9589710821367692	0.33660728081250396	0.3933420235605398	1.9585309444770063	0.27136877333073806	0.44325701147093294	1.9605580525025275	0.34904542239842185	0.6326388442315266	1.9999636031687513	0.25077205292604626	0.5671551694134773	0.42474712740505055	0.23836028295415176	0.5476069710556999	0.17225272282437631	0.25147446681474406	0.4570026570009395	0.2884563925329012	0.4460061505929945	0.5540332824985184	0.5304972966070937	0.5057584965171833	0.5026623471658641	0.8031991079762885	0.3946829900544982	0.34668959012796496	0.9922449598007153	0.30754198915623554	0.335825161743114	1.0502884629728646	0.30337787311071795	0.34137958383174816	1.0816630373928378	0.30924113374874734	0.35246024530446596	1.0967083728484286	0.10666852198033755	0.5539878941314363	0.5525938905832559	0.0911139660652332	0.49233399851663723	0.8300029484903841	0.26847118972710954	0.3969832177522005	1.000134042616097	0.3695337023301249	0.3603730195779753	1.034662634078221	0.38102584424491853	0.34204989403535957	1.0836464256422826	0.3388345743571148	0.3550529637474756	1.0938952995963858
